<svg t="1586285033093" class="icon" viewBox="0 0 1024 1024" version="1.1" xmlns="http://www.w3.org/2000/svg" p-id="5782" data-spm-anchor-id="a313x.7781069.0.i7" width="200" height="200"><path d="M512 199.424a256 256 0 1 1-256 256 256.256 256.256 0 0 1 256-256m0-102.4a358.4 358.4 0 1 0 358.4 358.4 358.4 358.4 0 0 0-358.4-358.4z" fill="#8a8a8a" p-id="5783" data-spm-anchor-id="a313x.7781069.0.i8" class="selected"></path><path d="M769.536 862.464H254.464a50.176 50.176 0 0 0-50.176 50.176v3.584a50.176 50.176 0 0 0 50.176 50.176h515.072a50.176 50.176 0 0 0 50.176-50.176v-3.584a50.176 50.176 0 0 0-50.176-50.176z" fill="#8a8a8a" p-id="5784" data-spm-anchor-id="a313x.7781069.0.i9" class="selected"></path><path d="M409.6 605.696a51.456 51.456 0 0 1 51.2-51.2h102.4a51.456 51.456 0 0 1 51.2 51.2 51.456 51.456 0 0 1-51.2 51.2h-102.4a51.2 51.2 0 0 1-51.2-51.2z" fill="#8a8a8a" p-id="5785" data-spm-anchor-id="a313x.7781069.0.i6" class="selected"></path></svg>