<svg t="1586675639608" class="icon" viewBox="0 0 1024 1024" version="1.1" xmlns="http://www.w3.org/2000/svg" p-id="5606" width="250" height="250"><path d="M617.094737 301.810526c51.2 16.168421 91.621053 59.284211 102.4 110.484211 2.694737 8.084211 10.778947 13.473684 18.863158 13.473684h5.389473c10.778947-2.694737 16.168421-13.473684 13.473685-21.557895-16.168421-64.673684-64.673684-118.568421-129.347369-137.431579-10.778947-2.694737-21.557895 2.694737-24.252631 13.473685-2.694737 8.084211 2.694737 18.863158 13.473684 21.557894zM617.094737 180.547368c115.873684 18.863158 207.494737 115.873684 223.663158 231.747369 0 10.778947 8.084211 16.168421 18.863158 16.168421h2.694736c10.778947 0 18.863158-10.778947 16.168422-21.557895-16.168421-134.736842-121.263158-242.526316-253.305264-266.778947-10.778947-2.694737-18.863158 5.389474-21.557894 16.168421-2.694737 10.778947 5.389474 21.557895 13.473684 24.252631z" fill="#707070" p-id="5607"></path><path d="M622.484211 29.642105c-10.778947 0-18.863158 5.389474-21.557895 16.168421s5.389474 18.863158 16.168421 21.557895c175.157895 21.557895 315.284211 164.378947 331.452631 342.231579 0 10.778947 8.084211 16.168421 18.863158 16.168421h2.694737c10.778947 0 18.863158-10.778947 16.168421-21.557895C970.105263 212.884211 816.505263 53.894737 622.484211 29.642105zM571.284211 662.905263c-13.473684 13.473684-26.947368 29.642105-35.031579 48.505263-45.810526-26.947368-88.926316-59.284211-123.957895-94.315789-35.031579-35.031579-67.368421-78.147368-94.31579-123.957895 18.863158-8.084211 35.031579-21.557895 48.505264-35.031579 75.452632-75.452632 75.452632-199.410526 0-274.863158C291.031579 107.789474 167.073684 107.789474 91.621053 183.242105c-35.031579 35.031579-53.894737 80.842105-56.589474 132.042106-2.694737 158.989474 70.063158 307.2 218.273684 458.105263 148.210526 148.210526 296.421053 218.273684 450.021053 218.273684h8.08421c48.505263-2.694737 97.010526-21.557895 132.042106-56.589474 75.452632-75.452632 75.452632-199.410526 0-274.863158-72.757895-72.757895-196.715789-72.757895-272.168421 2.694737z m247.915789 247.91579c-29.642105 29.642105-67.368421 45.810526-105.094737 45.810526h-5.389474c-145.515789 0-282.947368-67.368421-423.073684-207.494737-142.821053-142.821053-210.189474-282.947368-207.494737-431.157895 0-40.421053 16.168421-78.147368 45.810527-105.094736 24.252632-32.336842 64.673684-48.505263 105.094737-48.505264s80.842105 16.168421 110.48421 45.810527c61.978947 61.978947 61.978947 158.989474 0 220.968421-16.168421 16.168421-35.031579 26.947368-53.894737 35.031579l-2.694737 2.694737-2.694736 2.694736-2.694737 2.694737s0 2.694737-2.694737 2.694737v10.778947c29.642105 53.894737 67.368421 107.789474 110.48421 150.905264 43.115789 43.115789 97.010526 80.842105 150.905264 110.48421H544.336842c2.694737 0 5.389474 0 8.084211-2.694737h2.694736l5.389474-5.389473c8.084211-21.557895 18.863158-40.421053 35.031579-53.894737 61.978947-61.978947 158.989474-61.978947 220.968421 0 61.978947 61.978947 61.978947 161.684211 2.694737 223.663158z" fill="#707070" p-id="5608"></path></svg>